<svg width="22" height="24" viewBox="0 0 22 24" fill="none" xmlns="http://www.w3.org/2000/svg">
<path d="M21.8337 18.6667C21.8337 19.219 21.3859 19.6667 20.8337 19.6667H1.16699C0.614706 19.6667 0.166992 19.219 0.166992 18.6667V18.5001C0.166992 17.9478 0.614707 17.5001 1.16699 17.5001H1.25033V9.95033C1.25033 4.54666 5.61616 0.166748 11.0003 0.166748C16.3845 0.166748 20.7503 4.54666 20.7503 9.95033V17.5001H20.8337C21.3859 17.5001 21.8337 17.9478 21.8337 18.5001V18.6667ZM3.41699 17.5001H18.5837V9.95033C18.5837 5.74375 15.1885 2.33341 11.0003 2.33341C6.81216 2.33341 3.41699 5.74375 3.41699 9.95033V17.5001ZM8.29199 20.7501H13.7087C13.7087 21.4684 13.4233 22.1573 12.9154 22.6652C12.4075 23.1731 11.7186 23.4584 11.0003 23.4584C10.282 23.4584 9.59316 23.1731 9.08525 22.6652C8.57733 22.1573 8.29199 21.4684 8.29199 20.7501Z" fill="#020202"/>
</svg>
