<svg width="22" height="16" viewBox="0 0 22 16" fill="none" xmlns="http://www.w3.org/2000/svg">
<path d="M10.246 11H3.75398L2.00541 15.3714C1.85355 15.7511 1.48586 16 1.07696 16C0.36952 16 -0.114223 15.2855 0.148515 14.6287L5.74853 0.628609C5.9004 0.24895 6.2681 0 6.67701 0H7.32294C7.73185 0 8.09956 0.248951 8.25142 0.628609L13.8514 14.6287C14.1142 15.2855 13.6304 16 12.923 16C12.5141 16 12.1464 15.7511 11.9945 15.3714L10.246 11ZM9.44598 9L6.99998 2.885L4.55398 9H9.44598ZM20 8.535C20 8.23953 20.2395 8 20.535 8H21C21.5523 8 22 8.44771 22 9V15C22 15.5523 21.5523 16 21 16H20.535C20.2395 16 20 15.7605 20 15.465C19.3919 15.8157 18.7022 16.0002 18.0002 16C17.2982 15.9998 16.6086 15.8148 16.0008 15.4637C15.3929 15.1125 14.8881 14.6076 14.5372 13.9996C14.1863 13.3916 14.0015 12.702 14.0015 12C14.0015 11.298 14.1863 10.6084 14.5372 10.0004C14.8881 9.3924 15.3929 8.88748 16.0008 8.53635C16.6086 8.18521 17.2982 8.00024 18.0002 8C18.7022 7.99976 19.3919 8.18428 20 8.535ZM18 14C18.5304 14 19.0391 13.7893 19.4142 13.4142C19.7893 13.0391 20 12.5304 20 12C20 11.4696 19.7893 10.9609 19.4142 10.5858C19.0391 10.2107 18.5304 10 18 10C17.4695 10 16.9608 10.2107 16.5858 10.5858C16.2107 10.9609 16 11.4696 16 12C16 12.5304 16.2107 13.0391 16.5858 13.4142C16.9608 13.7893 17.4695 14 18 14Z" fill="black"/>
</svg>
