<svg width="22" height="14" viewBox="0 0 22 14" fill="none" xmlns="http://www.w3.org/2000/svg">
<path d="M13.9999 14.0007C13.4476 14.0003 13.0002 13.5514 13.0006 12.9991C13.001 12.4471 13.4486 11.9989 14.0006 11.9989H15.001C15.6594 12.0018 16.3119 11.8746 16.9211 11.6246C17.5303 11.3746 18.084 11.0068 18.5506 10.5422C19.0173 10.0776 19.3875 9.52547 19.6402 8.91742C19.8928 8.30936 20.0229 7.6574 20.0229 6.99894C20.0229 6.34049 19.8928 5.68852 19.6402 5.08047C19.3875 4.47242 19.0173 3.92025 18.5506 3.45568C18.084 2.9911 17.5303 2.62327 16.9211 2.37329C16.3119 2.12331 15.6594 1.99611 15.001 1.99899L14.0002 1.99935C13.4481 1.99954 13.0004 1.55213 13.0002 1.00003C13 0.447509 13.4481 -0.000389072 14.0006 1.54474e-06L15.001 0.0007086C16.8576 0.000708432 18.6381 0.738244 19.951 2.05107C21.2638 3.36389 22.0013 5.14446 22.0013 7.00107C22.0013 8.85768 21.2638 10.6382 19.951 11.9511C18.6381 13.2639 16.8576 14.0014 15.001 14.0014L13.9999 14.0007ZM8.99975 12.9993C9.00014 13.5518 8.55224 13.9999 7.99973 13.9997L7.00005 13.9993C5.14344 13.9993 3.36288 13.2618 2.05005 11.9489C0.737233 10.6361 -0.000302887 8.85556 -0.000302381 6.99894C-0.000301875 5.14233 0.737233 3.36177 2.05006 2.04894C3.36288 0.736122 5.14344 -0.0014124 7.00005 -0.00141257L8.00011 -0.00105938C8.55253 -0.000864152 9.00014 0.447958 8.99975 1.00038C8.99936 1.55239 8.55176 2.00041 7.99975 2.00041L6.99935 2.00041C6.3409 1.99752 5.68837 2.12472 5.07922 2.3747C4.47006 2.62468 3.91628 2.99252 3.44967 3.45709C2.98305 3.92167 2.61279 4.47383 2.36015 5.08188C2.10751 5.68994 1.97745 6.34191 1.97745 7.00036C1.97745 7.65881 2.1075 8.31078 2.36015 8.91883C2.61279 9.52689 2.98305 10.0791 3.44967 10.5436C3.91628 11.0082 4.47006 11.376 5.07922 11.626C5.68837 11.876 6.3409 12.0032 6.99935 12.0003L8.00008 12.0003C8.55191 12.0003 8.99936 12.4474 8.99975 12.9993ZM15.0001 5.9991C15.5524 5.99909 16.0001 6.44733 16.0001 6.99962C16.0001 7.55193 15.5524 8.00018 15 8.00014L7.00049 7.99957C6.44837 7.99953 6.00075 7.55181 6.00056 6.99969C6.00036 6.44726 6.44814 5.9991 7.00056 5.99909L15.0001 5.9991Z" fill="black"/>
</svg>
