<svg width="18" height="18" viewBox="0 0 18 18" fill="none" xmlns="http://www.w3.org/2000/svg">
<path d="M14.6192 1.96964C15.0506 2.3144 15.0475 2.95249 14.657 3.34295C14.2666 3.73342 13.637 3.72662 13.195 3.39569C12.1769 2.63352 10.9647 2.15917 9.6865 2.03321C8.07482 1.87439 6.45794 2.2793 5.11134 3.17896C3.76474 4.07862 2.77174 5.41736 2.30154 6.96708C1.83134 8.5168 1.91302 10.1816 2.53268 11.6779C3.15234 13.1741 4.27162 14.4092 5.69983 15.1727C7.12803 15.9362 8.77679 16.1809 10.3652 15.8651C11.9536 15.5492 13.3833 14.6924 14.4108 13.4406C15.2256 12.4478 15.7475 11.2554 15.9286 9.99654C16.0073 9.44991 16.4477 8.99997 17 8.99997C17.5522 8.99997 18.0057 9.44907 17.9445 9.99796C17.7523 11.7205 17.0656 13.3587 15.957 14.7095C14.6361 16.319 12.7979 17.4208 10.7557 17.827C8.71355 18.2332 6.5937 17.9187 4.75737 16.9372C2.92104 15.9556 1.48187 14.3677 0.685061 12.444C-0.111747 10.5203 -0.216886 8.3798 0.387558 6.38727C0.992002 4.39473 2.26863 2.67343 3.99992 1.51663C5.73121 0.359837 7.81004 -0.160869 9.88221 0.0432352C11.6213 0.214527 13.2653 0.887421 14.6192 1.96964Z" fill="black"/>
</svg>
